<?xml version="1.0" encoding="UTF-8"?>
<svg width="231px" height="235px" viewBox="0 0 231 235" version="1.1" xmlns="http://www.w3.org/2000/svg" xmlns:xlink="http://www.w3.org/1999/xlink">
    <!-- Generator: Sketch 58 (84663) - https://sketch.com -->
    <title>finish-svg</title>
    <desc>Created with Sketch.</desc>
    <g id="Page-1" stroke="none" stroke-width="1" fill="none" fill-rule="evenodd">
        <g id="finish-svg" fill-rule="nonzero">
            <path d="M223.78125,0 C219.794695,0 216.5625,3.507375 216.5625,7.83333333 L216.5625,15.6666667 L14.4375,15.6666667 L14.4375,7.83333333 C14.4375,3.507375 11.2053047,0 7.21875,0 C3.23219531,0 0,3.507375 0,7.83333333 L0,23.5 L0,117.5 L0,227.166667 C0,231.492625 3.23219531,235 7.21875,235 C11.2053047,235 14.4375,231.492625 14.4375,227.166667 L14.4375,125.333333 L216.5625,125.333333 L216.5625,227.166667 C216.5625,231.492625 219.794695,235 223.78125,235 C227.767805,235 231,231.492625 231,227.166667 L231,117.5 L231,23.5 L231,7.83333333 C231,3.507375 227.767805,0 223.78125,0 Z M187.6875,109.666667 L187.6875,70.5 L151.59375,70.5 L151.59375,109.666667 L115.5,109.666667 L115.5,70.5 L79.40625,70.5 L79.40625,109.666667 L43.3125,109.666667 L43.3125,70.5 L14.4375,70.5 L14.4375,31.3333333 L43.3125,31.3333333 L43.3125,70.5 L79.40625,70.5 L79.40625,31.3333333 L115.5,31.3333333 L115.5,70.5 L151.59375,70.5 L151.59375,31.3333333 L187.6875,31.3333333 L187.6875,70.5 L216.5625,70.5 L216.5625,109.666667 L187.6875,109.666667 Z" id="Shape" fill="#003B54"></path>
            <g id="Group" transform="translate(15.000000, 32.000000)" fill="#FFFFFF">
                <rect id="Rectangle" x="101" y="39" width="36.0714286" height="39"></rect>
                <rect id="Rectangle" x="0" y="0" width="28.8571429" height="39"></rect>
                <rect id="Rectangle" x="28.8571429" y="39" width="36.0714286" height="39"></rect>
                <rect id="Rectangle" x="173.142857" y="39" width="28.8571429" height="39"></rect>
                <rect id="Rectangle" x="137.071429" y="0" width="36.0714286" height="39"></rect>
                <rect id="Rectangle" x="64.9285714" y="0" width="36.0714286" height="39"></rect>
            </g>
        </g>
    </g>
</svg>